<svg xmlns="http://www.w3.org/2000/svg" width="398" height="200.637" viewBox="0 0 398 200.637">
  <g id="CP_logo_login_page" data-name="CP logo_login page" transform="translate(12779 4977.637)">
    <path id="Path_2408" data-name="Path 2408" d="M105.6,132.271a10.91,10.91,0,0,1-5.5-1.107c-.55-.275-.825-.55-1.376-.825a12.478,12.478,0,0,0,6.049-10.725A12.323,12.323,0,0,0,92.4,107.24a12.636,12.636,0,0,0-12.374,12.1,17.626,17.626,0,0,0,2.195,8.257,20.871,20.871,0,0,0,5.774,6.325,38.556,38.556,0,0,0,8.25,4.125,37.425,37.425,0,0,0,9.9,1.376,36.972,36.972,0,0,0,12.649-2.2,31.317,31.317,0,0,0,10.45-6.325,27.827,27.827,0,0,0,6.875-11,44.65,44.65,0,0,0,2.474-15.675V31.074a86.86,86.86,0,0,1,.549-9.618,11.084,11.084,0,0,1,2.214-5.781,8.881,8.881,0,0,1,4.667-2.757,23.036,23.036,0,0,1,7.975-.55V7.7H73.423v4.675a30.551,30.551,0,0,1,9.9,1.107,5,5,0,0,1,3.575,3.85,13.854,13.854,0,0,1-1.376,6.875L62.973,76.172,40.423,24.2a12.333,12.333,0,0,1-1.651-6.875,4.649,4.649,0,0,1,3.575-3.85A29.915,29.915,0,0,1,52.522,12.1V7.7H0v4.675a28.5,28.5,0,0,1,7.7.825,11.969,11.969,0,0,1,4.949,2.474,14.685,14.685,0,0,1,3.575,4.4c1.107,1.924,1.924,4.125,3.025,6.6L54.174,106.7h3.575L92.4,26.674A39.188,39.188,0,0,1,95.974,19.8a15.281,15.281,0,0,1,3.85-4.4,13.588,13.588,0,0,1,4.951-2.2,12.333,12.333,0,0,1,6.324,0,8.881,8.881,0,0,1,4.675,2.75,14.088,14.088,0,0,1,2.2,5.774,86.869,86.869,0,0,1,.55,9.624v81.123a34.256,34.256,0,0,1-1.651,11.542,13.3,13.3,0,0,1-4.4,6.6A12.722,12.722,0,0,1,105.6,132.271Z" transform="translate(-12657 -4985.337)" fill="#101010" fill-rule="evenodd"/>
    <text id="CHANNEL_PARTNER" data-name="CHANNEL PARTNER" transform="translate(-12580 -4787)" fill="#101010" font-size="37" font-family="Constantia" letter-spacing="0.099em"><tspan x="-198.546" y="0">CHANNEL PARTNER</tspan></text>
  </g>
</svg>
