<svg xmlns="http://www.w3.org/2000/svg" width="213.699" height="70.019" viewBox="0 0 213.699 70.019">
  <g id="vjd_logo" opacity="0.29">
    <g id="Group_1503" data-name="Group 1503">
      <path id="Path_2405" data-name="Path 2405" d="M88.282,52.577H86.743V56.43h1.541a1.888,1.888,0,0,0,1.982-1.982,2.319,2.319,0,0,0-.551-1.431,2.215,2.215,0,0,0-1.431-.443Zm0-.661a2.454,2.454,0,0,1,2.639,2.423A2.325,2.325,0,0,1,90.26,56.1a2.59,2.59,0,0,1-1.871.66H86.3V51.807h1.982Zm4.734,5.064V52.027h3.963v.551h-3.3v1.431h1.982v.551H93.676v1.758H97.2v.551H93.016Zm8.147,0h-.443L98.3,52.026h.662l1.872,3.963,1.982-3.963h.661l-2.312,4.954Zm4.184,0V52.027h3.963v.551h-3.3v1.431h1.982v.551h-1.982v1.758h3.525v.551h-4.184Zm6.055,0V52.027h.661v4.4h3.3v.551Zm7.706-.443a2.319,2.319,0,0,0,1.431-.551,2.136,2.136,0,0,0,0-2.862,1.691,1.691,0,0,0-1.431-.551,2.319,2.319,0,0,0-1.431.551,2.136,2.136,0,0,0,0,2.862,2.319,2.319,0,0,0,1.431.551Zm0,.551a2.414,2.414,0,0,1-1.872-.77,2.659,2.659,0,0,1-.77-1.872,2.268,2.268,0,0,1,.77-1.872,2.659,2.659,0,0,1,1.872-.77,2.414,2.414,0,0,1,1.872.77,2.659,2.659,0,0,1,.77,1.872,2.631,2.631,0,0,1-2.642,2.642Zm5.394-2.862h2.2a.779.779,0,0,0,.88-.881,1.564,1.564,0,0,0-.22-.661,1.18,1.18,0,0,0-.66-.22h-2.2v1.765Zm-.661,2.752V52.027H126.7a1.646,1.646,0,0,1,1.1.33,1.076,1.076,0,0,1,.443.991,1.413,1.413,0,0,1-.443,1.1,1.682,1.682,0,0,1-1.1.443h-2.2v2.2h-.661Zm6.605,0V52.027h3.961v.551h-3.3v1.431h1.982v.551h-1.982v1.758h3.523v.551h-4.184Zm6.716-2.749h2.2a.779.779,0,0,0,.881-.881,1.565,1.565,0,0,0-.22-.661,1.181,1.181,0,0,0-.661-.22h-2.2v1.762Zm-.661,2.752V52.027h2.862a1.646,1.646,0,0,1,1.1.33,1.076,1.076,0,0,1,.443.991,1.25,1.25,0,0,1-.33.881,1.359,1.359,0,0,1-.881.443l1.211,2.2h-.661l-1.213-2.2h-1.982v2.2H136.5Zm6.165-.77.33-.551c.33.22.77.443,1.1.661a3.91,3.91,0,0,0,1.1.22,1.646,1.646,0,0,0,1.1-.33.831.831,0,0,0,.443-.77.95.95,0,0,0-.33-.661,3.727,3.727,0,0,0-.881-.33h-.33a4.742,4.742,0,0,1-1.652-.33,1.1,1.1,0,0,1-.551-.443c-.11-.22-.22-.33-.22-.551a1.156,1.156,0,0,1,.551-.991,2.451,2.451,0,0,1,1.431-.443,4.685,4.685,0,0,1,1.211.22,3.307,3.307,0,0,1,1.211.661l-.33.551a4.461,4.461,0,0,0-.991-.551,3.257,3.257,0,0,0-1.1-.22,2.074,2.074,0,0,0-.881.22.605.605,0,0,0-.33.551c0,.11,0,.11.11.22,0,.11.11.11.22.22a5.489,5.489,0,0,0,1.321.33,1.633,1.633,0,0,1,.77.11,3.1,3.1,0,0,1,1.211.443,1.076,1.076,0,0,1,.443.991,1.355,1.355,0,0,1-.551,1.1,2.654,2.654,0,0,1-1.652.443,6.443,6.443,0,0,1-1.431-.22A2.031,2.031,0,0,1,142.668,56.211Z" transform="translate(8.71 5.221)" fill="#101010" fill-rule="evenodd"/>
      <path id="Path_2406" data-name="Path 2406" d="M92.276,20.778l-4.4-11.893A2.108,2.108,0,0,0,87.429,8a.605.605,0,0,0-.551-.33L86,7.457V7.014h5.064v.443l-.881.22c-.11,0-.22.11-.33.11-.11.11-.11.11-.11.22a1.2,1.2,0,0,0,.11.551,4.531,4.531,0,0,0,.33.881l3.193,8.808L96.79,9.439a7.58,7.58,0,0,1,.33-.881,1.2,1.2,0,0,0,.11-.551c0-.11,0-.22-.11-.22-.11-.11-.11-.11-.33-.11l-.881-.22V7.014H100.2v.443l-.991.22a2.4,2.4,0,0,0-.551.33,2.108,2.108,0,0,0-.443.881l-4.844,11.78-1.1.11Zm11.78-3.083v1.982a.351.351,0,0,0,.33.33l1.1.33v.443h-4.844v-.443l1.211-.33c.11,0,.22-.11.22-.33V8.117c0-.22-.11-.33-.22-.33l-1.211-.443V6.9h4.844v.443l-1.211.33c-.11,0-.22.11-.22.33Zm6.826-8.039V19.784h4.734l1.211-2.642.443-.11-.22,3.523-.11.11h-9.581v-.443l1.211-.33c.11,0,.22-.11.22-.33V8.117c0-.22-.11-.33-.22-.33l-1.211-.443V6.9H112.2v.443l-1.211.33c-.11,0-.22.11-.22.33V9C110.882,9.546,110.882,9.766,110.882,9.656ZM125.634,6.8l4.4,12a6.122,6.122,0,0,0,.443.881.936.936,0,0,0,.551.33l.88.22v.443h-5.064v-.443l.881-.22c.11,0,.22-.11.33-.11a.384.384,0,0,0,.11-.22,1.2,1.2,0,0,0-.11-.551,4.535,4.535,0,0,0-.33-.881l-.881-2.642h-4.734l-.991,2.642a7.586,7.586,0,0,1-.33.881,1.2,1.2,0,0,0-.11.551c0,.11,0,.22.11.22.11.11.11.11.33.11l.881.22v.443H117.71v-.443l.991-.33a2.4,2.4,0,0,0,.551-.33c.11-.11.22-.443.443-.77l5.064-12Zm-3.083,7.926h4.073l-1.872-5.394ZM139.285,7.9a6.107,6.107,0,0,0-1.872-.33,3.175,3.175,0,0,0-2.089.661,2.053,2.053,0,0,0-.77,1.762,3.258,3.258,0,0,0,.22,1.1,5.514,5.514,0,0,0,.77.881l.991.661a12.918,12.918,0,0,0,1.211.551l1.321.661a3.954,3.954,0,0,1,1.1.77,2.517,2.517,0,0,1,.77,1.1,3.048,3.048,0,0,1,.33,1.431,3.481,3.481,0,0,1-1.321,2.975,6.291,6.291,0,0,1-3.743.991,13.7,13.7,0,0,1-3.413-.551l-.11-.11.443-3.3.443-.11.661,2.752a4.771,4.771,0,0,0,2.089.443,3.612,3.612,0,0,0,2.312-.661,2.268,2.268,0,0,0,.77-1.872,3.258,3.258,0,0,0-.227-1.105,4.789,4.789,0,0,0-.661-.77l-.985-.661a12.912,12.912,0,0,0-1.211-.551l-1.321-.663c-.443-.22-.77-.551-1.211-.77a4.31,4.31,0,0,1-.88-1.1,3.517,3.517,0,0,1-.33-1.541,3.2,3.2,0,0,1,1.321-2.752,5.807,5.807,0,0,1,3.52-.988,18.609,18.609,0,0,1,3.3.33l.11.11-.551,3.083h-.33Z" transform="translate(8.68 0.69)" fill="#101010" fill-rule="evenodd"/>
      <path id="Path_2407" data-name="Path 2407" d="M87.153,27.127H93.1l.11.551-1.431.443a.351.351,0,0,0-.33.33V41.219a11.991,11.991,0,0,1-.11,2.089c-.11.661-.22,1.211-.33,1.762a2.511,2.511,0,0,1-.661,1.321,4.733,4.733,0,0,1-.99,1.105,5.042,5.042,0,0,1-1.541.77c-.551.22-1.321.443-2.089.661l-.22-.551a6.773,6.773,0,0,0,1.982-1.211,4.541,4.541,0,0,0,1.1-1.431,4.684,4.684,0,0,0,.443-1.872,14.777,14.777,0,0,0,.11-2.312v-13.1c0-.22-.11-.33-.33-.443l-1.431-.443-.22-.443Zm15.743-.22-1.211.22L95.63,41.659a6.122,6.122,0,0,1-.443.881,1.013,1.013,0,0,1-.661.443l-1.211.33.11.551H98.6v-.551l-1.1-.33c-.11,0-.22-.11-.33-.22a.4.4,0,0,1-.11-.33,1.937,1.937,0,0,1,.11-.661c.11-.22.22-.661.443-1.1l1.211-3.193h5.725l1.1,3.193a5.116,5.116,0,0,0,.33.991,1.4,1.4,0,0,1,.11.661.4.4,0,0,1-.11.33c-.11.11-.22.11-.33.22l-1.1.33v.551h6.055V43.2l-1.1-.33a1.013,1.013,0,0,1-.661-.443,9.814,9.814,0,0,1-.551-1.1Zm-3.853,9.688,2.642-6.605L104,36.595Zm15.964,7.266-5.284-14.422a3.337,3.337,0,0,0-.551-1.1c-.11-.22-.443-.33-.77-.443l-1.1-.33v-.551h6.053v.551l-1.1.33c-.11,0-.33.11-.33.22a.4.4,0,0,0-.11.33,1.937,1.937,0,0,0,.11.661,10.385,10.385,0,0,1,.33.991l3.853,10.789,4.184-10.679a7.588,7.588,0,0,0,.443-1.1,1.4,1.4,0,0,0,.11-.661A.389.389,0,0,0,120.4,28l-1.1-.33v-.551h5.174v.551l-1.211.33a1.4,1.4,0,0,0-.661.443,9.806,9.806,0,0,0-.551,1.1l-5.945,14.312Zm14.2,0h-2.975v-.551l1.431-.443q.33-.165.33-.33V28.448c0-.22-.11-.33-.33-.443l-1.431-.443v-.551h2.975a16.259,16.259,0,0,0,2.312-.11c.77,0,1.541-.11,2.312-.11a9.487,9.487,0,0,1,6.276,1.872,7.23,7.23,0,0,1,2.089,5.615c0,2.975-.77,5.284-2.312,6.826a8.471,8.471,0,0,1-6.5,2.422H131.3a4.416,4.416,0,0,1-2.089.33Zm1.211-1.1a5.816,5.816,0,0,0,1.431.11h1.321A6.3,6.3,0,0,0,138.017,41c1.1-1.211,1.651-3.083,1.651-5.725a8.435,8.435,0,0,0-1.541-5.507c-.991-1.213-2.642-1.762-4.954-1.762h-1.211a6.773,6.773,0,0,0-1.431.11V42.76Zm15.413-15.635h8.476l.11.11-.661,3.743-.443.11-.77-2.752h-5.507v6.607h3.853c.22,0,.33-.11.443-.33l.443-1.652h.661v4.844h-.661l-.443-1.652q-.165-.33-.33-.33H147.04v7.047h5.725l1.431-3.083.551-.11-.22,4.184-.11.11H142.86v-.551l1.431-.443a.351.351,0,0,0,.33-.33V28.558c0-.22-.11-.33-.33-.443l-1.431-.443v-.551Zm15.413,3.3V42.54c0,.22.11.33.33.443l1.321.443v.551h-5.835v-.551l1.431-.443q.33-.165.33-.33V28.558c0-.22-.11-.33-.33-.443l-1.431-.443v-.551H162.9l.11.551-1.321.443a.351.351,0,0,0-.33.33v.883a3.4,3.4,0,0,0-.11,1.1Zm.33,4.954,3.963,5.284a28.9,28.9,0,0,1,2.2,3.193h4.184v-.551l-1.1-.33a2.216,2.216,0,0,1-.88-.443,4.789,4.789,0,0,1-.661-.77l-5.394-7.153,4.734-5.284a6.644,6.644,0,0,1,.88-.881,2.129,2.129,0,0,1,.991-.551l1.211-.33v-.551H166.42v.551l.991.22a.292.292,0,0,1,.33.33.949.949,0,0,1-.33.661c-.22.33-.551.661-.88,1.1l-4.954,5.507ZM181.833,26.9l5.284,14.643a3.338,3.338,0,0,0,.551,1.1c.11.22.443.33.661.443l1.1.33v.551h-6.055v-.551l1.1-.33c.11,0,.22-.11.33-.22a.4.4,0,0,0,.11-.33,1.936,1.936,0,0,0-.11-.661,5.12,5.12,0,0,1-.33-.991l-1.1-3.193h-5.725l-1.211,3.193a7.594,7.594,0,0,0-.443,1.1,1.4,1.4,0,0,0-.11.661.4.4,0,0,0,.11.33c.11.11.22.11.33.22l1.1.33v.551h-5.172l-.11-.551,1.211-.33a1.013,1.013,0,0,0,.661-.443,6.533,6.533,0,0,0,.443-.881l6.055-14.533,1.321-.443Zm-3.853,9.688h4.954l-2.312-6.605-2.642,6.605ZM194.6,40.116v2.316c0,.22.11.443.33.443l1.321.443v.551H190.42v-.551l1.431-.443a.351.351,0,0,0,.33-.33v-14.1c0-.22-.11-.33-.33-.443l-1.431-.443v-.551h6.605A6.95,6.95,0,0,1,201.1,28a3.482,3.482,0,0,1,1.321,2.975,4.44,4.44,0,0,1-.88,2.862,5.218,5.218,0,0,1-2.862,1.652c.551.77.991,1.541,1.431,2.2s.77,1.321,1.211,1.982c.33.551.661,1.1.991,1.541a9.631,9.631,0,0,0,.881,1.1,1.519,1.519,0,0,0,.443.33.57.57,0,0,0,.443.22.662.662,0,0,0,.443.11,4.768,4.768,0,0,0,.551.11v.551a7.309,7.309,0,0,1-1.431.11h-.881a1.4,1.4,0,0,1-.661-.11c-.22,0-.33-.11-.551-.22-.11-.11-.33-.22-.443-.33a3.3,3.3,0,0,1-.991-1.1c-.33-.443-.661-.991-.991-1.541s-.661-1.211-1.1-1.872a19.154,19.154,0,0,0-1.211-1.982,1.518,1.518,0,0,0-.33-.443c-.11-.11-.22-.22-.33-.22a.4.4,0,0,0-.33-.11H194.5v4.294Zm0-4.954h1.321a4.68,4.68,0,0,0,3.083-.881A3.5,3.5,0,0,0,200,31.529a3.625,3.625,0,0,0-.88-2.642,4.232,4.232,0,0,0-2.862-.881h-.77a1.874,1.874,0,0,0-.77.11v7.047Z" transform="translate(8.628 2.708)" fill="#101010" fill-rule="evenodd"/>
      <path id="Path_2408" data-name="Path 2408" d="M42.276,57.572a4.368,4.368,0,0,1-2.2-.443c-.22-.11-.33-.22-.551-.33A5,5,0,0,0,41.945,52.5a4.934,4.934,0,0,0-4.954-4.954A5.059,5.059,0,0,0,32.038,52.4a7.057,7.057,0,0,0,.879,3.306,8.356,8.356,0,0,0,2.312,2.532,15.435,15.435,0,0,0,3.3,1.652,14.982,14.982,0,0,0,3.963.551,14.8,14.8,0,0,0,5.064-.881,12.538,12.538,0,0,0,4.184-2.532,11.141,11.141,0,0,0,2.752-4.4,17.875,17.875,0,0,0,.991-6.276V17.058a34.775,34.775,0,0,1,.22-3.851,4.437,4.437,0,0,1,.886-2.314,3.556,3.556,0,0,1,1.869-1.1,9.222,9.222,0,0,1,3.193-.22V7.7H29.395V9.572a12.231,12.231,0,0,1,3.963.443,2,2,0,0,1,1.431,1.541,5.546,5.546,0,0,1-.551,2.752l-9.027,20.8L16.183,14.305a4.937,4.937,0,0,1-.661-2.752,1.861,1.861,0,0,1,1.431-1.541,11.976,11.976,0,0,1,4.073-.551V7.7H0V9.572a11.41,11.41,0,0,1,3.083.33,4.792,4.792,0,0,1,1.981.991A5.879,5.879,0,0,1,6.5,12.655c.443.77.77,1.652,1.211,2.642L21.689,47.334H23.12L36.992,15.3a15.688,15.688,0,0,1,1.432-2.752,6.118,6.118,0,0,1,1.541-1.762A5.44,5.44,0,0,1,41.947,9.9a4.937,4.937,0,0,1,2.532,0A3.556,3.556,0,0,1,46.351,11a5.64,5.64,0,0,1,.881,2.312,34.775,34.775,0,0,1,.22,3.853V49.645a13.714,13.714,0,0,1-.661,4.621,5.325,5.325,0,0,1-1.762,2.642A5.093,5.093,0,0,1,42.276,57.572Z" transform="translate(0 0.777)" fill="#101010" fill-rule="evenodd"/>
      <rect id="Rectangle_1044" data-name="Rectangle 1044" width="1.101" height="70.019" transform="translate(77.175)" fill="#101010"/>
    </g>
  </g>
</svg>
