<svg xmlns="http://www.w3.org/2000/svg" width="24" height="24" viewBox="0 0 24 24">
  <g id="whatsapp_icon" transform="translate(1066 -3708)">
    <rect id="Rectangle_1200" data-name="Rectangle 1200" width="24" height="24" transform="translate(-1066 3708)" fill="none"/>
    <g id="Group_2530" data-name="Group 2530" transform="translate(-1061 3713)">
      <path id="Path_5067" data-name="Path 5067" d="M39.014,30.274h-.005a8.732,8.732,0,0,0-7.072,13.859l-1.089,3.246,3.359-1.073a8.736,8.736,0,1,0,4.807-16.032ZM44.1,42.612a2.464,2.464,0,0,1-1.716,1.233c-.456.1-1.053.175-3.06-.658a10.938,10.938,0,0,1-4.35-3.843,5,5,0,0,1-1.037-2.635,2.79,2.79,0,0,1,.893-2.127,1.268,1.268,0,0,1,.894-.313c.108,0,.206,0,.292.01.257.011.385.026.555.432.211.509.724,1.762.785,1.89a.52.52,0,0,1,.037.473,1.554,1.554,0,0,1-.283.4c-.128.149-.252.262-.38.421-.118.138-.251.288-.1.544A7.783,7.783,0,0,0,38.043,40.2a6.446,6.446,0,0,0,2.049,1.264.553.553,0,0,0,.617-.1,10.88,10.88,0,0,0,.683-.9.487.487,0,0,1,.626-.19c.236.082,1.484.7,1.741.827s.426.19.488.3A2.177,2.177,0,0,1,44.1,42.612Z" transform="translate(-31.557 -31.558)" fill="#00A20A"/>
    </g>
  </g>
</svg>
