<svg xmlns="http://www.w3.org/2000/svg" width="45" height="40" viewBox="0 0 45 40">
  <g id="vj_logo" transform="translate(-1582 -1463)">
    <path id="vj_logo-2" data-name="vj_logo" d="M27.254,39.852a2.816,2.816,0,0,1-1.419-.286c-.142-.071-.213-.142-.355-.213a3.221,3.221,0,0,0,1.561-2.768,3.181,3.181,0,0,0-3.194-3.194,3.261,3.261,0,0,0-3.194,3.123,4.549,4.549,0,0,0,.566,2.131,5.387,5.387,0,0,0,1.49,1.632,9.951,9.951,0,0,0,2.129,1.065A9.659,9.659,0,0,0,27.4,41.7a9.542,9.542,0,0,0,3.265-.568,8.083,8.083,0,0,0,2.7-1.632,7.182,7.182,0,0,0,1.774-2.839,11.524,11.524,0,0,0,.639-4.046V13.733a22.417,22.417,0,0,1,.142-2.482,2.861,2.861,0,0,1,.571-1.492,2.292,2.292,0,0,1,1.2-.712A5.946,5.946,0,0,1,39.746,8.9V7.7H18.95V8.907a7.885,7.885,0,0,1,2.555.286,1.289,1.289,0,0,1,.923.994,3.576,3.576,0,0,1-.355,1.774l-5.82,13.412-5.82-13.414a3.183,3.183,0,0,1-.426-1.774,1.2,1.2,0,0,1,.923-.994,7.721,7.721,0,0,1,2.626-.355V7.7H0V8.907a7.356,7.356,0,0,1,1.987.213,3.089,3.089,0,0,1,1.277.639,3.79,3.79,0,0,1,.923,1.136c.286.5.5,1.065.781,1.7l9.014,20.654H14.9L23.848,12.6a10.114,10.114,0,0,1,.923-1.774,3.944,3.944,0,0,1,.994-1.136,3.507,3.507,0,0,1,1.278-.568,3.183,3.183,0,0,1,1.632,0,2.292,2.292,0,0,1,1.207.71,3.636,3.636,0,0,1,.568,1.49,22.419,22.419,0,0,1,.142,2.484V34.741a8.841,8.841,0,0,1-.426,2.979,3.433,3.433,0,0,1-1.136,1.7A3.284,3.284,0,0,1,27.254,39.852Z" transform="translate(1585 1458.3)" fill="#000" fill-rule="evenodd"/>
    <rect id="Rectangle_1297" data-name="Rectangle 1297" width="45" height="40" transform="translate(1582 1463)" fill="none"/>
  </g>
</svg>
