<?xml version="1.0" encoding="utf-8"?>
<!-- Generator: Adobe Illustrator 22.1.0, SVG Export Plug-In . SVG Version: 6.00 Build 0)  -->
<svg version="1.1" id="Layer_1" xmlns="http://www.w3.org/2000/svg" xmlns:xlink="http://www.w3.org/1999/xlink" x="0px" y="0px"
	 viewBox="0 0 24 24" style="enable-background:new 0 0 24 24;" xml:space="preserve">
<style type="text/css">
	.st0{fill:#00A20A;}
	.st1{opacity:0.17;}
	.st2{fill:none;}
	.st3{fill:#101010;}
</style>
<g id="call_icon" transform="translate(-17917 -5256)">
	<g id="call" transform="translate(17610.09 5075.09)">
		<path id="ic_call_24px" class="st0" d="M315.8,192.2c0.8,1.6,2.2,3,3.8,3.8l1.3-1.3c0.2-0.2,0.4-0.2,0.6-0.1
			c0.7,0.2,1.4,0.3,2.1,0.3c0.3,0,0.6,0.3,0.6,0.6v2c0,0.3-0.3,0.6-0.6,0.6c-5.4,0-9.8-4.4-9.8-9.8c0,0,0,0,0,0
			c0-0.3,0.3-0.6,0.6-0.6h2c0.3,0,0.6,0.3,0.6,0.6c0,0.7,0.1,1.4,0.3,2.1c0.1,0.2,0,0.4-0.1,0.6L315.8,192.2z"/>
	</g>
</g>
</svg>
