<svg id="preferred_time_slot_icon" xmlns="http://www.w3.org/2000/svg" width="24" height="24" viewBox="0 0 24 24">
  <rect id="Box" width="24" height="24" fill="none"/>
  <path id="Union_2" data-name="Union 2" d="M-6549,4339a9.994,9.994,0,0,1,9.99-10A10.005,10.005,0,0,1-6529,4339a10.006,10.006,0,0,1-10.011,10A9.995,9.995,0,0,1-6549,4339Zm2,0a8,8,0,0,0,8,8,8,8,0,0,0,8-8,8,8,0,0,0-8-8A8,8,0,0,0-6547,4339Zm7,1v-6h1.5v5.25l4.5,2.67-.751,1.229Z" transform="translate(6551 -4327)" fill="#101010"/>
</svg>
