<svg height="464pt" viewBox="0 0 464 464" width="464pt" xmlns="http://www.w3.org/2000/svg"><path d="m272 414.527344v17.472656h32v-132.6875l-11.3125-11.3125h-6.160156c.898437 2.511719 1.472656 5.183594 1.472656 8 0 6.167969-2.40625 11.742188-6.238281 16 3.839843 4.257812 6.238281 9.832031 6.238281 16s-2.40625 11.742188-6.238281 16c3.839843 4.257812 6.238281 9.832031 6.238281 16s-2.40625 11.742188-6.238281 16c3.839843 4.257812 6.238281 9.832031 6.238281 16 0 10.414062-6.710938 19.214844-16 22.527344zm0 0"/><path d="m200 368h64c4.40625 0 8-3.59375 8-8s-3.59375-8-8-8h-64c-4.40625 0-8 3.59375-8 8s3.59375 8 8 8zm0 0"/><path d="m200 336h64c4.40625 0 8-3.59375 8-8s-3.59375-8-8-8h-64c-4.40625 0-8 3.59375-8 8s3.59375 8 8 8zm0 0"/><path d="m295.214844 94.695312-7.214844-13.617187-7.214844 13.617187-14.679687 1.984376 10.566406 9.601562-2.648437 14.382812 13.976562-6.832031 13.976562 6.832031-2.648437-14.382812 10.566406-9.601562zm0 0"/><path d="m240 192h96v16h-96zm0 0"/><path d="m272 224h32v16h-32zm0 0"/><path d="m325.574219 256h-93.574219c-4.40625 0-8 3.59375-8 8s3.59375 8 8 8h67.3125l58.34375 58.34375-11.3125 11.3125-26.34375-26.34375v84.6875h14.464844l40-16h25.535156v-96h-26.425781zm0 0"/><path d="m168 0h240.007812v16h-240.007812zm0 0"/><path d="m200 304h64c4.40625 0 8-3.59375 8-8s-3.59375-8-8-8h-64c-4.40625 0-8 3.59375-8 8s3.59375 8 8 8zm0 0"/><path d="m416 272h48v128h-48zm0 0"/><path d="m272 392c0-4.40625-3.59375-8-8-8h-64c-4.40625 0-8 3.59375-8 8s3.59375 8 8 8h64c4.40625 0 8-3.59375 8-8zm0 0"/><path d="m344 448h-112c-10.433594 0-19.328125 6.6875-22.632812 16h157.257812c-3.296875-9.3125-12.191406-16-22.625-16zm0 0"/><path d="m428 16c-19.847656 0-36 16.152344-36 36 0 13.832031 8.070312 26.601562 20.566406 32.527344l6.859375-14.457032c-6.9375-3.285156-11.425781-10.390624-11.425781-18.070312 0-11.023438 8.976562-20 20-20s20 8.976562 20 20v5.441406c0 13.519532-3.191406 27.0625-9.390625 39.453125-12.386719 24.777344-36.007813 42.34375-63.28125 47.105469h-7.488281l22.398437-112h-204.476562l22.398437 112h-7.480468c-27.273438-4.761719-50.894532-22.328125-63.433594-47.398438-6.054688-12.097656-9.246094-25.632812-9.246094-39.160156v-5.441406c0-11.023438 8.976562-20 20-20s20 8.976562 20 20c0 7.679688-4.488281 14.785156-11.433594 18.078125l6.859375 14.457031c12.503907-5.933594 20.574219-18.703125 20.574219-32.535156 0-19.847656-16.152344-36-36-36s-36 16.152344-36 36v5.441406c0 16 3.785156 32.007813 11.078125 46.613282 14.769531 29.53125 43.035156 50.410156 75.601563 55.832031l12.960937.035156c3.335937 9.46875 12.328125 16.078125 22.589844 16.078125h107.53125c10.238281 0 19.214843-6.566406 22.566406-16h12.328125l.65625-.113281c32.566406-5.429688 60.832031-26.300781 75.75-56.132813 7.152344-14.296875 10.9375-30.3125 10.9375-46.3125v-5.441406c0-19.847656-16.152344-36-36-36zm-104.527344 133-35.472656-17.359375-35.472656 17.351563 6.792968-36.855469-29.425781-26.703125 40.601563-5.496094 17.503906-33.015625 17.503906 33.015625 40.601563 5.496094-29.425781 26.703125zm0 0"/><path d="m176 376h-32v72h-32v-112h-32v112h-32v-152h-32v152h-16v16h192v-16h-16zm0 0"/><path d="m16 235.3125 64 64 24-24 58.34375 58.34375 11.3125-11.3125-69.65625-69.65625-24 24-52.6875-52.6875h20.6875v-16h-48v48h16zm0 0"/></svg>