<svg xmlns="http://www.w3.org/2000/svg" viewBox="0 0 13.431 13.431">
  <defs>
    <style>
      .cls-1 {
        fill: #028900;
      }
    </style>
  </defs>
  <path id="CP_leads" data-name="CP leads" class="cls-1" d="M15.035,8.434,8.991,2.39A1.335,1.335,0,0,0,8.044,2h-4.7A1.347,1.347,0,0,0,2,3.343v4.7A1.34,1.34,0,0,0,2.4,9L8.44,15.042a1.335,1.335,0,0,0,.947.39,1.313,1.313,0,0,0,.947-.4l4.7-4.7a1.313,1.313,0,0,0,.4-.947A1.356,1.356,0,0,0,15.035,8.434ZM4.35,5.358A1.007,1.007,0,1,1,5.358,4.35,1.006,1.006,0,0,1,4.35,5.358Z" transform="translate(-2 -2)"/>
</svg>
